<svg width="100" height="100" viewBox="0 0 100 100" fill="none" xmlns="http://www.w3.org/2000/svg">
<g clip-path="url(#clip0_5_2)">
<path d="M26.4708 3.8147e-06V11.7667H20.5833V23.5292H14.7083V35.2958H8.825V47.0583H2.94167V58.825H38.2333V70.5875H32.3542V82.3542H26.4708V94.1167H32.3542V88.2333H38.2333V82.3542H44.1167V76.4708H50V70.5833H55.8833V64.7083H61.7667V58.8292H67.6458V52.9458H73.5292V47.0625H79.4125V41.175H85.2958V35.2958H91.175V29.4125H73.5292V23.5292H79.4125V17.6458H85.2958V11.7667H91.175V5.88334H97.0583V3.8147e-06H26.4708ZM26.4708 94.1167H20.5833V100H26.4667L26.4708 94.1167ZM32.3542 11.7667H73.5292V17.6458H67.6458V23.5292H61.7667V29.4167H55.8833V35.2917H50V41.1708H55.8833V47.0542H50V41.175H44.1167V47.0583H38.2333V41.175H32.3542V47.0583H26.4708V41.175H20.5833V35.2958H26.4667V23.5292H32.35L32.3542 11.7667ZM26.4708 35.2917V41.1708H32.3542V35.2958L26.4708 35.2917ZM38.2333 41.1708H44.1167V35.2958H38.2333V41.1708ZM61.7667 41.1708H67.6458V47.0542H61.7667V41.1708Z" fill="black"/>
</g>
<defs>
<clipPath id="clip0_5_2">
<rect width="100" height="100" fill="white"/>
</clipPath>
</defs>
</svg>
