<svg width="52" height="47" viewBox="0 0 52 47" fill="none" xmlns="http://www.w3.org/2000/svg">
<g clip-path="url(#clip0_5_4)">
<path d="M6.77946 0.290819C4.51123 1.64395 0.0423848 6.80201 0 8.15471V10.3938C0 13.2321 2.64058 15.7267 5.03807 15.7267C7.91685 15.7267 10.3154 13.3296 10.3156 10.4845C10.3156 13.3296 12.632 15.7267 15.5109 15.7267C18.3901 15.7267 20.6321 13.3296 20.6321 10.4845C20.6321 13.3296 23.0951 15.7267 25.9741 15.7267H26.0262C28.9054 15.7267 31.3684 13.3296 31.3684 10.4845C31.3684 13.3296 33.6105 15.7267 36.4893 15.7267C39.3683 15.7267 41.6846 13.3296 41.6846 10.4845C41.6846 13.3296 44.0836 15.7267 46.9622 15.7267C49.3597 15.7267 52.0003 13.2325 52.0003 10.3938V8.15471C51.9579 6.8018 47.489 1.64352 45.2212 0.290819C38.1714 0.042125 33.284 -0.000885507 25.9999 0.000179109C18.7161 0.000817879 8.78574 0.115158 6.77903 0.290819H6.77946ZM20.5956 14.39C20.3204 14.8721 19.9794 15.3132 19.5826 15.7005C18.4959 16.7681 17.0063 17.4299 15.3641 17.4299C13.7838 17.4313 12.266 16.8101 11.1366 15.6996C10.7429 15.3121 10.4436 14.8978 10.1696 14.4153L10.1683 14.4161C9.89453 14.8995 9.51307 15.3136 9.11846 15.7016C7.98863 16.8112 6.47099 17.4319 4.891 17.4305C4.69306 17.4305 4.48707 17.3756 4.3205 17.3181C4.08908 19.7394 3.99138 22.0535 3.95684 23.7407L3.95641 23.7503C3.95218 24.6071 3.94794 25.3116 3.9437 26.2904C3.9882 31.3708 3.44292 42.7566 6.17314 45.5542C10.404 46.5454 18.1892 46.9968 25.9997 46.9996H26.001C33.8112 46.9968 41.5965 46.5454 45.8273 45.5542C48.5576 42.7564 48.0123 31.3706 48.0568 26.2902C48.0521 25.3116 48.0483 24.6071 48.0441 23.7501L48.0434 23.7405C48.0091 22.0528 47.9114 19.739 47.68 17.3176C47.5134 17.3751 47.3076 17.4301 47.1095 17.4301C45.5295 17.4315 44.0119 16.8108 42.882 15.7011C42.4874 15.3132 42.106 14.8993 41.8319 14.4157L41.8307 14.4149C41.5564 14.8974 41.2574 15.3119 40.8637 15.6992C39.7343 16.8096 38.2166 17.4308 36.6364 17.4292C34.9944 17.4292 33.5046 16.767 32.4178 15.6996C32.0211 15.3123 31.6801 14.8712 31.4048 14.3891C31.1325 14.8707 30.7947 15.3118 30.4012 15.6996C29.2715 16.8099 27.7536 17.431 26.1733 17.4294C26.1161 17.4294 26.0588 17.4269 26.0016 17.4252H26.0001C25.9429 17.4269 25.8857 17.4294 25.8278 17.4294C24.2476 17.431 22.7297 16.8101 21.6 15.6999C21.2064 15.312 20.8686 14.8709 20.5963 14.3893L20.5956 14.39ZM16.2542 20.0303L16.2537 20.0324H16.2569C17.9763 20.036 19.5036 20.0324 21.3961 22.1076C22.8855 21.9506 24.4419 21.8723 25.9995 21.8746H26.0008C27.5584 21.8725 29.1148 21.9506 30.6044 22.1076C32.4969 20.0322 34.0242 20.0358 35.7436 20.0324H35.7465L35.7461 20.0303C36.5584 20.0303 39.8078 20.0303 42.072 26.4195L44.5041 35.1845C46.3063 41.705 43.927 41.8645 40.9592 41.8702C36.558 41.7057 34.1211 38.4944 34.1211 35.2835C31.6848 35.6846 28.8427 35.8852 26.0006 35.8854H25.9993C23.157 35.8854 20.3148 35.6846 17.8788 35.2835C17.8788 38.4944 15.4416 41.7057 11.0406 41.8702C8.07283 41.8645 5.69377 41.7052 7.49597 35.1845L9.92865 26.4197C12.1928 20.0305 15.4423 20.0305 16.2546 20.0305L16.2542 20.0303ZM25.9995 25.0514V25.0527C25.9953 25.057 21.3662 29.3282 20.534 30.8474L23.5653 30.7254V33.3814C23.5653 33.5058 24.7818 33.4551 25.9995 33.3985H26.0008C27.2181 33.4551 28.4347 33.5058 28.4347 33.3814V30.7254L31.4661 30.8474C30.6336 29.3282 26.0006 25.0527 26.0006 25.0527V25.0514L25.9999 25.0519L25.9995 25.0514Z" fill="white"/>
</g>
<defs>
<clipPath id="clip0_5_4">
<rect width="52" height="47" fill="white"/>
</clipPath>
</defs>
</svg>
